<mxfile host="app.diagrams.net" agent="Mozilla/5.0 (X11; Linux x86_64) AppleWebKit/537.36 (KHTML, like Gecko) Chrome/133.0.0.0 Safari/537.36" version="26.2.2">
  <diagram name="Páxina-1" id="eKV2w5ngbzJLP01wZJ-5">
    <mxGraphModel dx="1044" dy="599" grid="1" gridSize="10" guides="1" tooltips="1" connect="1" arrows="1" fold="1" page="1" pageScale="1" pageWidth="1654" pageHeight="1169" math="0" shadow="0">
      <root>
        <mxCell id="0" />
        <mxCell id="1" parent="0" />
        <mxCell id="9XiMu_L3y-hN_776-2DZ-1" value="Inicio" style="strokeWidth=2;html=1;shape=mxgraph.flowchart.start_1;whiteSpace=wrap;" parent="1" vertex="1">
          <mxGeometry x="510" y="30" width="100" height="60" as="geometry" />
        </mxCell>
        <mxCell id="9XiMu_L3y-hN_776-2DZ-2" value="Acender LED" style="rounded=1;whiteSpace=wrap;html=1;absoluteArcSize=1;arcSize=14;strokeWidth=2;" parent="1" vertex="1">
          <mxGeometry x="160" y="430" width="100" height="40" as="geometry" />
        </mxCell>
        <mxCell id="9XiMu_L3y-hN_776-2DZ-3" value="Luz&amp;lt;700?" style="strokeWidth=2;html=1;shape=mxgraph.flowchart.decision;whiteSpace=wrap;" parent="1" vertex="1">
          <mxGeometry x="258" y="280" width="100" height="100" as="geometry" />
        </mxCell>
        <mxCell id="9XiMu_L3y-hN_776-2DZ-5" value="Sensor de luz" style="shape=parallelogram;html=1;strokeWidth=2;perimeter=parallelogramPerimeter;whiteSpace=wrap;rounded=1;arcSize=0;size=0.15000000000000002;" parent="1" vertex="1">
          <mxGeometry x="260" y="180" width="98" height="50" as="geometry" />
        </mxCell>
        <mxCell id="9XiMu_L3y-hN_776-2DZ-6" value="" style="endArrow=classic;html=1;rounded=0;exitX=1;exitY=0.5;exitDx=0;exitDy=0;exitPerimeter=0;entryX=0.5;entryY=0;entryDx=0;entryDy=0;" parent="1" source="9XiMu_L3y-hN_776-2DZ-3" target="9XiMu_L3y-hN_776-2DZ-12" edge="1">
          <mxGeometry width="50" height="50" relative="1" as="geometry">
            <mxPoint x="371" y="370" as="sourcePoint" />
            <mxPoint x="401" y="430" as="targetPoint" />
            <Array as="points">
              <mxPoint x="401" y="330" />
            </Array>
          </mxGeometry>
        </mxCell>
        <mxCell id="9XiMu_L3y-hN_776-2DZ-7" value="" style="endArrow=classic;html=1;rounded=0;exitX=0;exitY=0.5;exitDx=0;exitDy=0;exitPerimeter=0;entryX=0.5;entryY=0;entryDx=0;entryDy=0;" parent="1" source="9XiMu_L3y-hN_776-2DZ-3" target="9XiMu_L3y-hN_776-2DZ-2" edge="1">
          <mxGeometry width="50" height="50" relative="1" as="geometry">
            <mxPoint x="371" y="370" as="sourcePoint" />
            <mxPoint x="211" y="430" as="targetPoint" />
            <Array as="points">
              <mxPoint x="211" y="330" />
            </Array>
          </mxGeometry>
        </mxCell>
        <mxCell id="9XiMu_L3y-hN_776-2DZ-8" value="Si" style="text;html=1;align=center;verticalAlign=middle;resizable=0;points=[];autosize=1;strokeColor=none;fillColor=none;" parent="1" vertex="1">
          <mxGeometry x="201" y="298" width="30" height="30" as="geometry" />
        </mxCell>
        <mxCell id="9XiMu_L3y-hN_776-2DZ-9" value="Non" style="text;html=1;align=center;verticalAlign=middle;resizable=0;points=[];autosize=1;strokeColor=none;fillColor=none;" parent="1" vertex="1">
          <mxGeometry x="371" y="298" width="50" height="30" as="geometry" />
        </mxCell>
        <mxCell id="9XiMu_L3y-hN_776-2DZ-10" value="" style="endArrow=classic;html=1;rounded=0;exitX=0.5;exitY=1;exitDx=0;exitDy=0;exitPerimeter=0;entryX=0.5;entryY=0;entryDx=0;entryDy=0;" parent="1" source="9XiMu_L3y-hN_776-2DZ-1" target="9XiMu_L3y-hN_776-2DZ-5" edge="1">
          <mxGeometry width="50" height="50" relative="1" as="geometry">
            <mxPoint x="352" y="370" as="sourcePoint" />
            <mxPoint x="289.33333333333326" y="180" as="targetPoint" />
            <Array as="points">
              <mxPoint x="560" y="120" />
              <mxPoint x="440" y="120" />
              <mxPoint x="309" y="120" />
            </Array>
          </mxGeometry>
        </mxCell>
        <mxCell id="9XiMu_L3y-hN_776-2DZ-11" value="" style="endArrow=classic;html=1;rounded=0;exitX=0.5;exitY=1;exitDx=0;exitDy=0;entryX=0.5;entryY=0;entryDx=0;entryDy=0;entryPerimeter=0;" parent="1" edge="1">
          <mxGeometry width="50" height="50" relative="1" as="geometry">
            <mxPoint x="309.5" y="230" as="sourcePoint" />
            <mxPoint x="308.5" y="280" as="targetPoint" />
          </mxGeometry>
        </mxCell>
        <mxCell id="9XiMu_L3y-hN_776-2DZ-12" value="Apagar LED" style="rounded=1;whiteSpace=wrap;html=1;absoluteArcSize=1;arcSize=14;strokeWidth=2;" parent="1" vertex="1">
          <mxGeometry x="352" y="430" width="100" height="40" as="geometry" />
        </mxCell>
        <mxCell id="9XiMu_L3y-hN_776-2DZ-13" value="" style="endArrow=classic;html=1;rounded=0;exitX=0.5;exitY=1;exitDx=0;exitDy=0;" parent="1" source="9XiMu_L3y-hN_776-2DZ-12" edge="1">
          <mxGeometry width="50" height="50" relative="1" as="geometry">
            <mxPoint x="341" y="370" as="sourcePoint" />
            <mxPoint x="310" y="150" as="targetPoint" />
            <Array as="points">
              <mxPoint x="401" y="510" />
              <mxPoint x="460" y="510" />
              <mxPoint x="460" y="330" />
              <mxPoint x="460" y="150" />
            </Array>
          </mxGeometry>
        </mxCell>
        <mxCell id="9XiMu_L3y-hN_776-2DZ-14" value="Sensor&amp;nbsp;&lt;div&gt;temperatura&lt;/div&gt;" style="shape=parallelogram;perimeter=parallelogramPerimeter;whiteSpace=wrap;html=1;fixedSize=1;" parent="1" vertex="1">
          <mxGeometry x="50" y="170" width="120" height="60" as="geometry" />
        </mxCell>
        <mxCell id="9XiMu_L3y-hN_776-2DZ-15" value="" style="endArrow=classic;html=1;rounded=0;entryX=0.5;entryY=0;entryDx=0;entryDy=0;" parent="1" target="9XiMu_L3y-hN_776-2DZ-14" edge="1">
          <mxGeometry width="50" height="50" relative="1" as="geometry">
            <mxPoint x="310" y="120" as="sourcePoint" />
            <mxPoint x="120" y="120" as="targetPoint" />
            <Array as="points">
              <mxPoint x="110" y="120" />
            </Array>
          </mxGeometry>
        </mxCell>
        <mxCell id="9XiMu_L3y-hN_776-2DZ-16" value="Botón A" style="shape=parallelogram;perimeter=parallelogramPerimeter;whiteSpace=wrap;html=1;fixedSize=1;" parent="1" vertex="1">
          <mxGeometry x="510" y="150" width="100" height="50" as="geometry" />
        </mxCell>
      </root>
    </mxGraphModel>
  </diagram>
</mxfile>
